<svg version="1" xmlns="http://www.w3.org/2000/svg" width="426.667" height="426.667" viewBox="0 0 320.000000 320.000000"><path d="M233.5 5c-4.9 1.1-11.8 3.2-15.5 4.8-6.6 3.1-19.8 10.8-23.5 14-1.1.9-3.2 2.3-4.7 3.1-1.5.7-6.4 4.2-11 7.8-4.6 3.5-10.1 7.5-12.3 9-2.2 1.4-4.2 2.9-4.5 3.2-.3.3-2.3 1.9-4.5 3.6-2.2 1.6-4.4 3.3-5 3.7-8.2 6.4-14.8 10.8-28.9 19.2-1.7 1-3.3 2.2-3.4 2.7-.2.5-.8.7-1.3.3-.5-.3-.9 0-.9.6s-.5.8-1 .5c-.5-.3-1-.2-1 .2 0 .9-3.6 2.8-10.7 5.8-2.4 1-4.3 2.1-4.3 2.5 0 .3-1.7 1.4-3.7 2.4-5.7 2.7-22.1 13.8-30.4 20.5-6.8 5.4-22.6 21.2-27.4 27.1-11.3 14.3-21 31.9-26.8 48.6-6.9 19.9-6.9 30.7-.1 51.1 6.3 18.8 15.4 31.2 34.9 47.6 13 11 33.3 22.3 48 27 18 5.7 27.8 7.2 46 7.2 18.5 0 27-1.3 42.3-6.5 33.4-11.4 56.5-38.2 74.4-86.5 1.6-4.4 6-19 9.8-32.5 8.2-29.3 10.3-34.4 22.6-56.7 15.5-27.9 20.7-41.7 22.2-59.7 1.4-15.2-1.1-30.1-7.9-47.6C300 15.2 292 8 278.6 4.6c-8.2-2.2-33.8-1.9-45.1.4zm33.7 3.2c1.5.2 3 .7 3.4 1.1.4.4 2.2.7 4.1.7 1.8 0 3.3.5 3.3 1.1 0 .6.7.9 1.5.5.8-.3 1.5-.1 1.5.5 0 .5 1.2 1.5 2.8 2.2 3.5 1.6 9.3 7.8 8.7 9.4-.2.7 0 1.3.6 1.3 1.7 0 4.1 2.9 3.4 4-.4.6-1.1.7-1.7.4-.7-.5-.8-.2-.3.6 1.6 2.5 1.8 6 1.2 14.5-.3 2.7 0 6.3.6 7.8.7 2.2.6 3.1-.3 3.7-.7.4-1.4 2.4-1.5 4.4-.1 2.2-1.4 5.4-3.3 8-1.8 2.5-3.2 4.9-3.2 5.4s-.6 1.5-1.4 2.1c-.8.7-1.2 2.1-.8 3.3.4 1.6.2 1.9-.8 1.3-1-.6-1.2-.4-.7.9.4 1-.1 2.3-1.3 3.3-1.1 1-2 2.2-2 2.8 0 .6-.8 2-1.7 3.1-1.9 2.1-3.6 4.9-6.3 9.9-.9 1.6-2.3 4.1-3.2 5.5-.9 1.4-1.8 3.2-2 4-.2.8-2.6 4.8-5.5 9-5.1 7.3-11 18.6-14.9 28.2-1 2.7-2.2 4.8-2.6 4.8-.5 0-.8.7-.8 1.5s-.9 3-2 5c-1.1 1.9-1.9 3.9-1.8 4.3 0 .4-.2 1.6-.6 2.7-.4 1.1-1.2 3.1-1.6 4.5-.4 1.4-1.1 3.4-1.6 4.5-.4 1.1-.6 3-.5 4.2.1 1.3-.2 2.3-.8 2.3-.5 0-1.3 2-1.7 4.5-.3 2.5-.9 4.5-1.3 4.5s-2.5 3.5-4.7 7.7c-2.1 4.3-4.2 7.9-4.6 8.1-.5.2-.8 1-.8 1.8 0 .7-1.6 3.5-3.6 6.1-3.4 4.5-5.8 7.2-12.6 14.5-1.6 1.6-2.8 3.4-2.8 4 0 .6-1.9 2.9-4.2 5.2-2.4 2.3-6.1 6.1-8.3 8.4-8.3 8.8-11.2 11.2-16.5 13.8-3 1.5-6.4 3.5-7.5 4.4-1.1 1-3 2.1-4.2 2.5-1.3.3-2.3 1-2.3 1.5s-2.7 1.7-6 2.6c-3.3.9-6.3 2.1-6.6 2.5-.3.5-1.3.9-2.2.9-.9 0-3 .7-4.6 1.5-1.5.8-3.2 1.3-3.6 1-.4-.3-1.3.2-1.9.9-.7.8-2.9 1.7-4.9 2-7.2 1.2-29.8 1.5-35.7.4-10.6-1.8-18.5-4.2-18.5-5.6 0-.7-.4-1.1-.9-.8-.4.3-1.8-.5-3-1.8-1.3-1.4-4.9-3.1-8.4-4.1-4.3-1.1-7.6-2.9-10.6-5.5-2.4-2.2-4.9-3.6-5.4-3.3-.6.3-.7.1-.3-.5.4-.7-2-3.9-5.8-7.8-3.7-3.6-6.6-6.8-6.6-7.1 0-.4-.7-1.5-1.7-2.5-3.4-3.8-9-15.3-9.7-20-.2-1.8-.5-3.5-.6-3.8-.7-1.5-.4-12 .3-12 .5 0 .7-2.4.6-5.2-.2-3 .5-7.9 1.6-11.3 1-3.3 1.8-6.4 1.7-6.8-.2-.5.7-2 1.8-3.4s2-3.4 2-4.5 1.8-5 3.9-8.6c2.1-3.7 4.1-7.8 4.2-9.2.2-1.4.9-2.8 1.4-3.3.6-.4.5-1.1-.5-1.6-.8-.6-1.1-1.3-.7-1.7.4-.4.3-1.2-.2-1.8-.6-.7.5-3 3.2-6.6 4.7-6.2 20-21 21.7-21 .6 0 1.6-1.1 2.2-2.5.6-1.3 1.9-2.7 3-3 1-.4 1.8-1.2 1.8-2 0-.7 1.5-2.3 3.4-3.4 1.8-1.2 4.4-3.1 5.7-4.4 4.4-4.3 22.9-17.3 31.9-22.5 2.5-1.4 10.1-5.6 17-9.5 6.9-3.8 13.7-7.8 15.2-8.8 1.4-1.1 3-1.9 3.5-1.9.4 0 1.9-1 3.3-2.3 1.4-1.3 5.2-4 8.5-6.2 3.3-2.1 7.4-5.1 9-6.8 6.9-6.7 30.8-23.4 40.3-28.2 5.1-2.5 12.4-5.1 16.9-6 1.5-.3 6-1.2 9.8-1.9 3.9-.7 8.1-1.8 9.5-2.4 2.2-.9 14.6-.9 22.2 0z"/><path d="M126.3 98c-24.5 6.4-47.4 29-56.9 56.1-10.4 29.6 4 60.8 33.1 71.9 3.3 1.2 6.8 2.7 7.9 3.2 3.5 1.9 18.8 2.1 26.8.5 13.4-2.8 31.9-12.9 43.1-23.5 11-10.5 19.3-28.6 21.8-47.9 1.2-8.6 1.1-9.2-1.6-17.8-2.5-7.7-3.9-10.1-10.7-18.6-11.6-14.5-20.6-20.9-34.3-24.4-7.9-2-20.4-1.8-29.2.5zm16.4 2.6c-.3.3-1.2.4-1.9.1-.8-.3-.5-.6.6-.6 1.1-.1 1.7.2 1.3.5zm11.7 3.5c3.4-.3 8.8 4.6 8 7.3-1 4-2.7 6.6-4.6 7.2-1 .3-1.6 1-1.3 1.5.4.5-.7.9-2.4.9-1.6 0-3.6.6-4.3 1.2-.7.7-2.6 1.4-4.3 1.5-1.6.1-4.7.3-6.7.5-2.1.2-4-.1-4.2-.7-.3-.5-1.3-.1-2.3 1.1-1.7 1.9-5.3 3.1-10.5 3.7-1 .1-1.8.4-1.8.8 0 .3-1.3.6-2.9.7-1.6 0-4.1.8-5.5 1.7-2.6 1.8-7.2 1.2-6-.7.5-.7.2-.8-.6-.3-1.4.9-3.1-1.2-2.3-3.1.2-.7 1.5-1.5 2.9-1.8 1.3-.4 2.3-1.1 2.1-1.8-.1-.6 1-1.4 2.6-1.9 2.6-.7 3.8.3 1.7 1.6-2 1.2-1 2.6 1 1.5 1.1-.6 2-1.7 2-2.5 0-.7.6-1.5 1.3-1.8.9-.3.9-.7-.1-1.9-1.9-2.4 3.7-7.4 10.2-8.9 6.5-1.5 7.4-2.1 5-3-1.5-.6-1.2-.8 1.4-.8 1.7-.1 3.2-.6 3.2-1.1 0-.6 1.9-1 4.3-1.1 2.3 0 6-.3 8.2-.8 2.2-.4 4.3-.3 4.6.2.3.5.9.8 1.3.8zm-46.5 33.5c-2.1 2.6-1.9 4.2.7 4.8 1.7.5 2.4 1.3 2.4 3.1 0 2.9 1.7 2.5 4.4-1.2 1.8-2.5 1.8-2.5-.2-1.9-1.2.4-2.3.2-2.8-.5-.4-.7-.3-.9.3-.6.6.4 1.9-.3 2.9-1.4l1.8-2 .8 2.2c.8 2 1 2 3.2.6 2.9-2 3.8-1.3 2.5 2-.8 2.1-.7 2.4.6 1.9 1.7-.6 1.3.5-1 3.4-2 2.4-2.9 11.1-1.3 12.2 1 .6.5 1.5-2.2 3.7-1.9 1.6-3.5 3.5-3.5 4.2 0 1.6-5.7 3.2-6.5 1.9-.3-.5-2.3.2-4.3 1.6-2.9 1.9-3.7 2.1-3.7.9 0-.9-.9-1.5-2.6-1.5-2.4 0-4.9 2-10 8.3-3.7 4.4-6.6 2.2-9-6.8-1.2-4.4-1.1-5.6.3-9.9 1.9-5.7 1.6-6.5-1.3-3.1-2.4 2.9-2.5 2.9-1.8.5.8-3.2 2.3-5 4-5 .7 0 1.8-.9 2.4-2 .9-1.6.8-1.8-.5-1.4-2.4 1-1.8-.7 1.7-4.3 3.4-3.5 5.4-4.3 4.4-1.8-.9 2.5 2.5 1.7 4.9-1.1 1.3-1.5 3.5-2.8 5.1-3 1.5-.1 3.2-1 3.7-1.9.5-.9 1.8-2 3-2.5 3.1-1.2 3.1-1.2 1.6.6z"/><path d="M121.5 118c-1 1.1-2.2 1.7-2.6 1.4-.5-.3-.9 0-.9.5 0 1.6 2.6 1.3 4.4-.5 1.4-1.4 2.2-3.4 1.3-3.4-.2 0-1.2.9-2.2 2zM116.3 124.7c0 .8.7 1.1 1.4.8.8-.3 1.7-.5 1.9-.5.2 0 .4-.4.4-.9 0-.6-.8-.9-1.8-.8-1 0-1.9.7-1.9 1.4z"/></svg>